# Blender v2.74 (sub 0) OBJ File: 'terminal.blend'
# www.blender.org
o Cube
v 2.119232 1.668264 1.631849
v -2.119232 1.668264 1.631849
v -1.592441 2.195055 -1.984075
v 1.592441 2.195055 -1.984074
v 2.119231 5.906727 1.631850
v -2.119233 5.906727 1.631848
v -1.592441 5.379936 -1.984075
v 1.592441 5.379936 -1.984075
v 1.773910 2.013585 1.384355
v -1.773910 2.013585 1.384356
v 1.773909 5.561406 1.384356
v -1.773911 5.561406 1.384355
v -1.275019 2.512476 -2.267354
v 1.275020 2.512476 -2.267354
v -1.275019 5.062514 -2.267354
v 1.275019 5.062514 -2.267354
v -0.615314 3.172181 -3.184162
v 0.615315 3.172181 -3.184162
v -0.615314 4.402809 -3.184162
v 0.615315 4.402809 -3.184162
v -0.000001 3.787495 1.643428
v 1.153276 2.000003 -1.485472
v -1.534787 1.618491 1.133247
v 1.534787 1.618491 1.133247
v -1.153275 2.000003 -1.485473
v -1.153275 1.548260 -1.551286
v 1.153276 1.548260 -1.551285
v -1.534787 1.166748 1.067434
v 1.534787 1.166748 1.067434
v -1.787522 1.410833 -2.306677
v 1.787523 1.410833 -2.306676
v -2.378848 0.819507 1.752216
v 2.378848 0.819507 1.752215
v -1.787522 0.048187 -2.536180
v 1.787523 0.048187 -2.536179
v -2.378848 0.056826 1.522712
v 2.378848 0.056826 1.522711
v 2.018513 0.335135 3.593133
v -2.018513 0.335135 3.593134
v 2.018513 -0.039524 3.398394
v -2.018513 -0.039524 3.398394
vt 0.512051 0.445398
vt 0.461351 0.330197
vt 0.509996 0.320107
vt 0.109863 0.105735
vt 0.351821 0.357466
vt 0.364210 0.446139
vt 0.212599 0.430220
vt 0.097537 0.387919
vt 0.000126 0.000126
vt 0.353818 0.369306
vt 0.354271 0.438496
vt 0.775952 0.088365
vt 0.571109 0.269723
vt 0.640680 0.224910
vt 0.670525 0.524158
vt 0.944792 0.625073
vt 0.878427 0.000126
vt 0.365471 0.391008
vt 0.351469 0.415026
vt 0.428578 0.354771
vt 0.446790 0.437776
vt 0.380959 0.396802
vt 0.337889 0.428180
vt 0.713362 0.430671
vt 0.718156 0.345154
vt 0.696694 0.192268
vt 0.669311 0.460591
vt 0.564704 0.420406
vt 0.458662 0.909703
vt 0.082422 0.909703
vt 0.270542 0.721583
vt 0.082422 0.533463
vt 0.458662 0.533463
vt 0.605317 0.399692
vt 0.560222 0.314637
vt 0.752919 0.313270
vt 0.763236 0.346127
vt 0.627776 0.320581
vt 0.646480 0.377011
vt 0.656265 0.342319
vt 0.667256 0.330234
vt 0.685568 0.265258
vt 0.830557 0.326772
vt 0.776889 0.343664
vt 0.793738 0.319559
vt 0.903525 0.912680
vt 0.525461 0.912680
vt 0.523880 0.697245
vt 0.905105 0.701182
vn 0.000000 -0.931300 -0.364300
vn 0.000000 0.989600 -0.144200
vn -0.000000 -0.582500 0.812800
vn -0.989600 0.000000 -0.144200
vn 0.000000 0.665800 -0.746100
vn 0.989600 0.000000 -0.144200
vn 0.989800 0.020600 -0.141200
vn 0.582500 0.000000 0.812800
vn -0.582500 -0.000000 0.812800
vn 0.000000 0.582500 0.812800
vn 0.000000 0.811700 -0.584100
vn 0.665800 -0.000000 -0.746100
vn -0.665800 0.000000 -0.746100
vn 0.000000 -0.665800 -0.746100
vn 0.000000 -0.000000 -1.000000
vn 0.811700 0.000000 -0.584100
vn -0.811700 0.000000 -0.584100
vn 0.000000 -0.811700 -0.584100
vn 0.000000 0.891900 0.452300
vn 0.000000 -0.995100 0.099300
vn 0.229100 -0.957900 -0.172900
vn -0.229100 -0.957900 -0.172900
vn 0.000000 -0.144200 0.989600
vn -0.000000 0.144500 0.989500
vn -0.144500 0.000000 0.989500
vn 0.144500 -0.000000 0.989500
vn 0.000000 -0.144500 0.989500
vn -0.989800 0.020600 -0.141200
vn 0.000000 0.144200 -0.989600
vn -0.981000 -0.055800 0.185600
vn 0.314200 0.944900 0.091900
vn -0.314200 0.944900 0.091900
vn 0.000000 0.983900 -0.179000
vn -0.000000 -1.000000 0.002100
vn 0.989500 0.041600 -0.138100
vn -0.989300 0.024300 -0.144200
vn 0.000000 0.166100 -0.986100
vn 0.000000 -0.461200 0.887300
vn 0.981700 -0.087900 0.169000
vn -0.000000 -0.998700 -0.051300
vn 0.000000 0.967100 0.254500
vn -0.981700 -0.087900 0.169000
vn 0.989300 0.024300 -0.144200
vn -0.989500 0.041600 -0.138100
vn 0.981000 -0.055800 0.185600
s off
f 3/1/1 4/2/1 22/3/1
f 5/4/2 8/5/2 7/6/2
f 6/7/3 12/8/3 11/9/3
f 6/7/4 7/6/4 3/1/4
f 8/5/5 16/10/5 15/11/5
f 1/12/6 4/2/6 8/5/6
f 22/3/7 24/13/7 29/14/7
f 6/7/8 2/15/8 10/16/8
f 1/12/9 5/4/9 11/9/9
f 1/12/10 9/17/10 10/16/10
f 16/10/11 20/18/11 19/19/11
f 4/2/12 14/20/12 16/10/12
f 7/6/13 15/11/13 13/21/13
f 3/1/14 13/21/14 14/20/14
f 19/19/15 20/18/15 18/22/15
f 16/10/16 14/20/16 18/22/16
f 15/11/17 19/19/17 17/23/17
f 13/21/18 17/23/18 18/22/18
f 28/24/19 32/25/19 33/26/19
f 2/15/20 23/27/20 24/13/20
f 4/2/21 1/12/21 24/13/21
f 3/1/22 25/28/22 23/27/22
f 23/27/23 28/24/23 29/14/23
f 11/29/24 12/30/24 21/31/24
f 12/30/25 10/32/25 21/31/25
f 9/33/26 11/29/26 21/31/26
f 10/32/27 9/33/27 21/31/27
f 25/28/28 26/34/28 28/24/28
f 22/3/29 27/35/29 26/34/29
f 32/25/30 36/36/30 41/37/30
f 29/14/31 33/26/31 31/38/31
f 28/24/32 26/34/32 30/39/32
f 26/34/33 27/35/33 31/38/33
f 36/36/34 34/40/34 35/41/34
f 31/38/35 33/26/35 37/42/35
f 30/39/36 34/40/36 36/36/36
f 31/38/37 35/41/37 34/40/37
f 38/43/38 39/44/38 41/37/38
f 33/26/39 38/43/39 40/45/39
f 37/42/40 40/45/40 41/37/40
f 33/46/41 32/47/41 39/48/41
f 25/28/1 3/1/1 22/3/1
f 6/7/2 5/4/2 7/6/2
f 5/4/3 6/7/3 11/9/3
f 2/15/4 6/7/4 3/1/4
f 7/6/5 8/5/5 15/11/5
f 5/4/6 1/12/6 8/5/6
f 27/35/7 22/3/7 29/14/7
f 12/8/8 6/7/8 10/16/8
f 9/17/9 1/12/9 11/9/9
f 2/15/10 1/12/10 10/16/10
f 15/11/11 16/10/11 19/19/11
f 8/5/12 4/2/12 16/10/12
f 3/1/13 7/6/13 13/21/13
f 4/2/14 3/1/14 14/20/14
f 17/23/15 19/19/15 18/22/15
f 20/18/16 16/10/16 18/22/16
f 13/21/17 15/11/17 17/23/17
f 14/20/18 13/21/18 18/22/18
f 29/14/19 28/24/19 33/26/19
f 1/12/20 2/15/20 24/13/20
f 22/3/21 4/2/21 24/13/21
f 2/15/22 3/1/22 23/27/22
f 24/13/23 23/27/23 29/14/23
f 23/27/28 25/28/28 28/24/28
f 25/28/29 22/3/29 26/34/29
f 39/44/42 32/25/42 41/37/42
f 27/35/31 29/14/31 31/38/31
f 32/25/32 28/24/32 30/39/32
f 30/39/33 26/34/33 31/38/33
f 37/42/34 36/36/34 35/41/34
f 35/41/43 31/38/43 37/42/43
f 32/25/44 30/39/44 36/36/44
f 30/39/37 31/38/37 34/40/37
f 40/45/38 38/43/38 41/37/38
f 37/42/45 33/26/45 40/45/45
f 36/36/40 37/42/40 41/37/40
f 38/49/41 33/46/41 39/48/41
