# Blender v2.74 (sub 0) OBJ File: 'mesure_instrument.blend'
# www.blender.org
o Cube
v 0.612072 0.761319 -0.423910
v 0.612072 0.761319 0.423910
v -0.411995 0.694198 0.612072
v -0.411995 0.694198 -0.612072
v 0.612072 0.930408 -0.423909
v 0.612072 0.930408 0.423910
v -0.010076 0.992450 0.379894
v -0.010076 0.992450 -0.379894
v -0.772958 0.694198 0.612072
v -0.772958 0.694198 -0.612072
v -0.772958 1.417573 0.612072
v -0.772958 1.417573 -0.612072
vt 0.928373 0.303303
vt 0.802743 0.242540
vt 0.867047 0.122540
vt 0.483406 0.030198
vt 0.462701 0.324306
vt 0.105298 0.324306
vt 1.016873 0.215436
vt 0.939500 0.328264
vt 0.828117 0.328264
vt 0.520911 0.526563
vt 0.619997 0.899275
vt 0.097572 0.899275
vt 0.984138 0.213702
vt 0.960203 0.108279
vt 0.629123 0.209715
vt 0.802284 0.007016
vt 0.826837 0.118165
vt 0.776648 0.200086
vt 0.084594 0.030198
vt 0.196658 0.526563
vn 0.065400 -0.997900 0.000000
vn 0.099200 0.995100 0.000000
vn 1.000000 0.000000 0.000000
vn -0.070600 -0.000000 0.997500
vn 0.486800 0.873500 0.000000
vn 0.124800 0.499300 -0.857400
vn -1.000000 -0.000000 -0.000000
vn 0.000000 0.000000 -1.000000
vn 0.381400 0.190300 0.904600
vn 0.000000 -1.000000 0.000000
vn 0.124800 0.499300 0.857400
vn -0.070600 0.000000 -0.997500
vn 0.381400 0.190300 -0.904600
vn 0.000000 0.000000 1.000000
s off
f 2/1/1 3/2/1 4/3/1
f 5/4/2 8/5/2 7/6/2
f 5/7/3 6/8/3 2/1/3
f 2/1/4 6/8/4 7/9/4
f 8/10/5 12/11/5 11/12/5
f 1/13/6 4/3/6 8/14/6
f 11/15/7 12/16/7 10/17/7
f 4/3/8 10/17/8 12/16/8
f 3/2/9 7/9/9 11/15/9
f 4/3/10 3/2/10 9/18/10
f 1/13/1 2/1/1 4/3/1
f 6/19/2 5/4/2 7/6/2
f 1/13/3 5/7/3 2/1/3
f 3/2/11 2/1/11 7/9/11
f 7/20/5 8/10/5 11/12/5
f 5/7/12 1/13/12 8/14/12
f 9/18/7 11/15/7 10/17/7
f 8/14/13 4/3/13 12/16/13
f 9/18/14 3/2/14 11/15/14
f 10/17/10 4/3/10 9/18/10
